<svg width="14" height="14" viewBox="0 0 14 14" xmlns="http://www.w3.org/2000/svg">
 <path d="m7 1.1c-1.9 0-3.63 0.603-4.9 1.6-1.27 1-2.1 2.42-2.1 4 0 1.38 0.674 2.61 1.68 3.57-0.0572 0.815-0.254 1.82-0.678 2.22l-0.914 0.863h1.26c1.37 0 2.58-0.781 3.38-1.39 0.717 0.198 1.47 0.34 2.27 0.34 1.9 0 3.63-0.603 4.9-1.6 1.27-1 2.1-2.42 2.1-4s-0.822-3-2.1-4c-1.27-1-3-1.6-4.9-1.6zm0 1c1.69 0 3.21 0.541 4.29 1.39s1.71 1.98 1.71 3.22-0.634 2.37-1.71 3.22c-1.08 0.848-2.6 1.39-4.29 1.39-0.792 0-1.55-0.119-2.24-0.334l-0.25-0.0781-0.205 0.16c-0.498 0.388-1.24 0.777-1.99 1.03 0.241-0.649 0.374-1.33 0.4-1.9l0.0117-0.244-0.188-0.158c-0.978-0.832-1.54-1.91-1.54-3.08 0-1.24 0.634-2.37 1.71-3.22s2.6-1.39 4.29-1.39z" />
</svg>
