<svg width="513" height="515" viewBox="0 0 513.3595 514.99427" xmlns="http://www.w3.org/2000/svg">
 <path d="m275 0.0112c-9.84 0.238-20.2 4.3-19.1 16.1-0.0494 14.1 16.2 15.6 26.9 14.4 38.4 1.77 77.3 11.6 109 34.2 44.8 29.2 75.5 77.6 84.7 130 4.55 19.9 3.59 40.4 6.49 60.5 4.23 13.4 25.9 13.5 29.5-0.4 2.26-16.5-0.601-33.3-2.29-49.7-7.35-56.2-33.3-111-77.7-147-35.3-30.9-80-51.5-127-55.5-7.91-1.07-15.9-1.65-23.9-1.81-2.07-0.305-4.31-0.453-6.58-0.398zm-187 8.81c-0.551 0.00812-1.1 0.0295-1.66 0.0645-23.5 4.42-41.8 22.8-60.2 37.2-17.5 13.3-31.9 34.7-24.5 57.5 18 66.3 53.8 126 94.8 181 78.4 103 185 184 307 229 38.9 9.14 72.2-21.8 93.2-50.8 16.6-18.3 23.2-52.5 1.11-69.2-32.2-27.1-66.1-53.5-105-70.4-28.1-10.4-48.6 14.6-62.8 34.8-15.1 20.1-43.8 7.72-62.1-1.09-45.1-24-86-60.2-108-107-7.7-18.1-19.2-45.7-1.07-61.1 15.6-15.9 46.8-28.8 39.7-56-13.2-37.5-40.8-67.8-65.8-98-11.1-13.7-26.8-26.2-43.9-25.9zm189 55.7c-8.24-0.0428-15.6 7.23-14.8 15.7 0.753 9.84 11.4 14.4 20.1 14.7 26.5 2.55 53.2 10.2 75 25.8 22.7 16.5 38.9 41.2 47.1 67.9 4.27 14 4.99 28.6 5.32 43.1-0.386 10.2 9.26 19.3 19.5 17 11-1.26 12.8-13.1 11.8-22.1 0.789-39.4-13.5-79-40.5-108-26.5-29.5-64.6-47-104-52.1-6-1.02-12-1.98-18.2-2.04-0.555-0.0697-1.11-0.105-1.66-0.107zm11.9 67.7c-10.5 0.0278-17 13.7-11.6 22.4 3.67 6.43 11.5 7.88 18.3 8.28 14.1 1.55 29.2 6.31 37.7 18.4 6.15 8.6 8.67 19.2 10.3 29.5 1.1 6.19 0.109 13.5 4.58 18.5 5.58 5.58 15.3 6.75 21.5 1.59 6.24-5 5.45-13.9 4.9-21-1.28-17.6-6.56-35.4-18.5-48.8-14.1-16.7-35.6-25.6-56.9-27.9-3.47-0.189-7.01-0.458-10.4-0.904z"/>
</svg>
