<svg width="438" height="492" viewBox="0 0 438 492" xmlns="http://www.w3.org/2000/svg" preserveAspectRatio="none">
 <path d="m137 0c-13.7 0-25 11.3-25 25v1.5h-87c-13.7 0-25 11.3-25 25v416c0 13.7 11.3 25 25 25h297c13.7 0 25-11.3 25-25v-416c0-13.7-11.3-25-25-25h-90v-1.5c0-13.7-11.3-25-25-25zm0 20h70c2.94 0 5 2.06 5 5v23c0 2.94-2.06 5-5 5h-70c-2.94 0-5-2.06-5-5v-1.5h2e-3l-2e-3 -10v-11.5c0-2.94 2.06-5 5-5zm-112 26.5h87v1.5c0 13.7 11.3 25 25 25h70c13.7 0 25-11.3 25-25v-1.5h90c2.94 0 5 2.06 5 5v416c0 2.94-2.06 5-5 5h-297c-2.94 0-5-2.06-5-5v-416c0-2.94 2.06-5 5-5zm31 69.6a10 10 0 1 0 0 20h235a10 10 0 1 0 0 -20zm0 58.9a10 10 0 1 0 0 20h235a10 10 0 1 0 0 -20zm0 58.6a10 10 0 1 0 0 20h235a10 10 0 1 0 0 -20zm0 58.6a10 10 0 1 0 0 20h146a10 10 0 1 0 0 -20z"/>
 <path d="m232 356-41.4 22.9a15 15 0 0 0 0 26.3l41.4 22.9h191a15 15 0 0 0 15 -15v-42a15 15 0 0 0 -15 -15z" fill="#a3d252"/>
</svg>
