<svg width="529" height="492" preserveAspectRatio="none" version="1.1" viewBox="0 0 529 492" xmlns="http://www.w3.org/2000/svg">
 <path d="m228 0c-13.7 0-25 11.3-25 25v1.5h-87c-13.7 0-25 11.3-25 25v416c0 13.7 11.3 25 25 25h297c13.7 0 25-11.3 25-25v-416c0-13.7-11.3-25-25-25h-90v-1.5c0-13.7-11.3-25-25-25zm0 20h70c2.94 0 5 2.06 5 5v23c0 2.94-2.06 5-5 5h-70c-2.94 0-5-2.06-5-5v-1.5h2e-3l-2e-3 -10v-11.5c0-2.94 2.06-5 5-5zm-112 26.5h87v1.5c0 13.7 11.3 25 25 25h70c13.7 0 25-11.3 25-25v-1.5h90c2.94 0 5 2.06 5 5v416c0 2.94-2.06 5-5 5h-297c-2.94 0-5-2.06-5-5v-416c0-2.94 2.06-5 5-5zm31 69.6c-5.52 0-10 4.48-10 10s4.48 10 10 10h235c5.52 0 10-4.48 10-10s-4.48-10-10-10zm0 58.9c-5.52 0-10 4.48-10 10s4.48 10 10 10h235c5.52 0 10-4.48 10-10s-4.48-10-10-10zm0 58.6c-5.52 0-10 4.48-10 10s4.48 10 10 10h235c5.52 0 10-4.48 10-10s-4.48-10-10-10zm0 58.6c-5.52 0-10 4.48-10 10s4.48 10 10 10h146c5.52 0 10-4.48 10-10s-4.48-10-10-10z"/>
 <path d="m323 356-41.4 22.9a15 15 0 0 0 0 26.3l41.4 22.9h191a15 15 0 0 0 15 -15v-42a15 15 0 0 0 -15 -15z" fill="#a3d252"/>
</svg>
