<svg viewBox="0 0 500 500" xmlns="http://www.w3.org/2000/svg">
 <path d="m416 44.4v20h44.1c2.94 0 5 2.06 5 5v406c0 2.94-2.06 5-5 5h-290c-2.94 0-5-2.06-5-5v-39.8h-20v39.8c0 13.7 11.3 25 25 25h290c13.7 0 25-11.3 25-25v-406c0-13.7-11.3-25-25-25h-44.1z" />
 <path d="m120-0.75c-13.7 0-25 11.3-25 25v66.1h20v-66.1c0-2.94 2.06-5 5-5h290c2.94 0 5 2.06 5 5v406c0 2.94-2.06 5-5 5h-290c-2.94 0-5-2.06-5-5v-129h-20v129c0 13.7 11.3 25 25 25h290c13.7 0 25-11.3 25-25v-406c0-13.7-11.3-25-25-25h-290z" />
 <path d="m259 348c0.11-38.7 32.4-70.9 71.2-70.8a71.5 71.5 0 0 1 71.4 71.8c-0.07 38.8-32.4 71-71.2 70.8a71.5 71.5 0 0 1 -71.4 -71.8zm71.7 57a56.6 56.6 0 1 0 -57.1 -56.3 56.2 56.2 0 0 0 57.1 56.3z"/>
 <path d="m322 361c10.9-13.1 20.5-24.7 30.1-36.2 3.54-4.21 7.43-9.79 13.5-4.93 6.25 5 1.4 9.9-2.07 14.1-11.2 13.6-22.7 27-33.8 40.7-6 7.43-11.2 7.09-16.5-0.55-4.66-6.6-10.3-12.6-14.1-19.6-1.55-2.79 0.41-7.53 0.77-11.4 3.47 1 7.8 1 10.2 3.13 4.23 3.79 7.3 8.9 11.9 14.8z"/>
 <path d="m164 53.7c-3.86 0.01-7.73 0.0293-11.6 0.0293-17.3 0-20.7 2.36-23.6 19.2-1.4 8.07-4.59 12.8-13.7 13.1-5.5 1.74-12.5 1.78-16.7-2.09-16.4-7.92-17.9-7.66-30.7 4.78-3.69 3.59-7.33 7.24-10.9 10.9-16.2 16.5-16.2 16.5-4 36.2 4.64 7.52-1.27 23.9-9.47 26.2-24.3 6.91-24.3 6.91-24.3 31.9v9.93c0 20.9 1.33 22.6 22 27.1 10.8 2.38 17.3 18.2 11.2 27.5-11.6 17.9-11.4 19.2 3.74 34.5 2.08 2.08 4.08 4.24 6.17 6.32 10.1 10 19.1 23.7 37.2 8.79 0 0.1-0.841 0.77 1.28-0.92 2.12-1.69 8.85-0.179 13.6 0.611 9.85 4.37 13.1 5.61 14.6 13.5 2.8 15.7 6.33 18.3 22 18.6 7.72 0.11 15.4 0.13 23.2 0 15.8-0.25 19.2-2.69 21.8-18.6 1.31-7.92 5-11.6 12.3-14.8 7.55-3.25 12.8-2 19.1 2.36 12.8 8.94 17.4 8.19 28.7-3 5.5-5.43 11-10.9 16.4-16.4 10.1-10.4 10.6-15 2.95-27-9.93-15.6-4.41-28.5 14-32.4 12.8-2.77 16-6.55 16.3-19.5 0.15-7.7 0.0991-15.4 0.0391-23.2-0.15-18.3-2-21-19.8-24.3-7.09-1.31-10.2-4.54-13.2-11-3.82-8.26-2.21-14.2 2.53-21.2 8.12-11.9 7.3-16.4-2.92-26.9-4.88-5-9.89-9.88-14.8-14.8-13.4-13.5-16.5-14-31.8-3.36-5.43 3.77-9.85 4-16.2 1.77-8.78-3.1-12.6-8.07-13.9-17.2-2-13.6-6.32-16.6-19.9-16.7-3.86-0.04-7.72-0.0393-11.6-0.0293zm-4.33 14.1c4.98-0.0288 9.88 0.0709 14.7 0.586 2.8 0.3 5.89 5 7.43 8.35 2.56 5.53 2.22 14.2 6.23 16.9 8.62 5.84 19 9.45 29.2 12.4 3.13 0.92 7.85-2.95 11.6-5 3.76-2.05 7.35-4.76 11.5-7.5l25 25.6c-1 1.72-1.81 3.85-3.24 5.38-9.47 10.1-9.1 20-3.65 32.8 5 11.9 10.8 19.4 23.8 19.8 7.29 0.16 9.56 3.97 8.81 10.7a60.2 60.2 0 0 0 0 6.62c0 19-0.111 18.7-18.5 24.2-3.86 1.17-6.74 5.6-10 8.56-0.24 0.22-0.26 0.68-0.41 1-7.53 16-15.2 32 6.57 46.7-9.27 8.31-16.2 15.4-24.2 21.2-2.35 1.72-7.64 0.66-11-0.59-5.72-2.09-11.6-8.4-16.4-7.49a81.4 81.4 0 0 0 -29.3 12c-4 2.67-4.76 11.1-5.8 17.1-1.09 6.28-3.74 9.18-10.2 8.41a54.4 54.4 0 0 0 -6.61 0c-19.6 0.09-19.3-7.8e-4 -25-18.6-1.19-3.87-5.18-7.3-8.64-9.94-2.8-2.13-7.14-2.18-10.1-4.17-10.8-7.25-20.6-5.75-29.8 2.71-5.11 4.7-9.53 4.57-13.8-1.14a45.2 45.2 0 0 0 -4.66 -4.69c-14-13.9-13.8-13.8-4.04-30.7 1.64-2.85 2.8-7.19 1.85-10.1a142 142 0 0 0 -10.3 -24.2c-1.64-3-5.93-5.1-9.46-6.3-5.45-1.86-11.3-2.6-17.8-4 0-10.5-0.429-20.4 0.311-30.2 0.18-2.34 3.87-5.24 6.59-6.4 6.27-2.68 15.5-2.54 18.9-7 6-7.93 9.2-18.3 12.3-28 0.91-2.89-2.28-7.34-4.17-10.8-2.44-4.43-5.45-8.55-8.51-13.2l26.3-24.8c10.4 6.42 19.8 14.6 37 7.46 17-7.06 19.6-18.5 22.1-33.5 5.15 0 10.2-0.157 15.2-0.186zm2.77 57.5c-39.1 0-71.5 32.7-71.3 72 0.25 38.8 32.4 70.8 71.2 70.7a71.6 71.6 0 0 0 71.3 -71.8c-0.29-38.7-32.6-70.9-71.3-70.9zm-1.14 14.6a56.6 56.6 0 0 1 57.7 57.2c-0.23 31.6-25.4 56.3-57.2 56.1a56.6 56.6 0 0 1 -0.482 -113zm1.47 17.7a39.4 39.4 0 0 0 -39.6 39.9c0.21 21.1 17.5 38.1 38.9 38.2 22.2 0.13 39.3-16.6 39.4-38.6a38.9 38.9 0 0 0 -38.7 -39.5zm-0.49 14.4c13.2-0.15 24.5 10.9 24.7 24.3a24.9 24.9 0 0 1 -23.9 25.1c-13 0.41-24.9-10.7-25.3-23.8-0.47-13.6 10.9-25.6 24.5-25.7z" fill="#a3d252"/>
</svg>
