<svg width="180" height="68.3" viewBox="0 0 180 68.3" preserveAspectRatio="none" xmlns="http://www.w3.org/2000/svg">
 <path d="m0 24.2v4.03h17.9v-4.03zm0 11.6v4.06h7.03v12.8h4.03v-12.8h6.84v-4.06h-10.9z"/>
 <path d="m43.1 24.2v4.03h3.06v24.5h3.77l0.24 0.139 7.02-12.2 6.88 12v0.0625h4v-28.5h-4v20.4l-4.55-7.92 0.863-1.5-2.58-1.49-0.371-0.645-0.373 0.215-0.17-0.0977-0.172 0.297-2.76 1.6 0.916 1.59-4.71 8.15v-20.6h-4z"/>
 <path d="m78.6 24.2-0.0039 2e-3h-7.01v4.03h3.03v24.5h4v-19.6l9.86 19.6 0.232-0.121v0.125h4.03v-28.5h-4.03v20.1l-10.1-20.1v-0.0254h-0.0117z"/>
 <path d="m99.9 24.2v28.5h16.9v-7.84h-4.03v3.78h-8.84v-24.4z"/>
 <path d="m7.03 8.06h76.7v1.31h-76.7z" fill="#666"/>
 <path d="m98.6 8.06h76.7v1.31h-76.7z" fill="#666"/>
 <path d="m7.03 67.1h166v1.25h-166z" fill="#666"/>
 <path d="m162 24.2v4.03h17.9v-4.03zm0 11.6v4.06h7.06v12.8h4.03v-12.8h6.81v-4.06z"/>
 <path d="m144 24.2v4.03h16.9v-4.03zm0 11.6v16.9h4.09v-12.8h9.28v-4.06h-9.28z"/>
 <path d="m31.1 24c-5.08 0-9.2 4.12-9.2 9.2v10.6c0 5.08 4.12 9.2 9.2 9.2s9.2-4.12 9.2-9.2v-10.6c0-5.08-4.12-9.2-9.2-9.2zm-0.0781 4.49c3.47 0 6.28 2.81 6.28 6.28v7.22c0 3.47-2.81 6.28-6.28 6.28-3.47 0-6.28-2.81-6.28-6.28v-7.22c0-3.47 2.81-6.28 6.28-6.28z"/>
 <path d="m87.2 0v1.78h7.81v-1.78zm0 5.16v1.78h3.06v5.69h1.78v-5.69h2.97v-1.78h-4.75z"/>
 <path d="m129 24c-5.08 0-9.2 4.12-9.2 9.2v10.6c0 5.08 4.12 9.2 9.2 9.2s9.2-4.12 9.2-9.2v-10.6c0-5.08-4.12-9.2-9.2-9.2zm-0.0781 4.49c3.47 0 6.28 2.81 6.28 6.28v7.22c0 3.47-2.81 6.28-6.28 6.28s-6.28-2.81-6.28-6.28v-7.22c0-3.47 2.81-6.28 6.28-6.28z"/>
</svg>
