<svg width="500" height="500" viewBox="0 0 500 500" xmlns="http://www.w3.org/2000/svg" preserveAspectRatio="none">
 <path d="m36 86c-13.7 0-25 11.3-25 25v287c0 13.7 11.3 25 25 25h132v43h-34.4v20h34.4 165 34.4v-20h-34.4v-43h132c13.7 0 25-11.3 25-25v-287c0-13.7-11.3-25-25-25h-122v20h122c2.94 0 5 2.06 5 5v287c0 2.94-2.06 5-5 5h-428c-2.94 0-5-2.06-5-5v-287c0-2.94 2.06-5 5-5h122v-20h-122zm152 337h125v43h-125v-43z" />
 <path d="m100 325v-19.1h39.8c0-17.4-0.26-33.7 0.06-50 0.55-27.7 12.8-49.4 37.4-61.7 12.4-6.2 27-7.73 42.6-11.9-0.94-1.63-2-5.58-4.61-7.61-11.1-8.67-18.9-19.4-23-32.8-0.61-2-1.25-5-2.62-5.54-11.5-4.11-9.53-13.7-9.57-22.4-0.06-13.2-0.33-26.5 0.14-39.7 1.37-38.6 30.8-68.2 68.1-68.9 38.2-0.75 69 27.7 71.3 66.7 1 16.7 0.48 33.6 0.23 50.4 0 3.32-1.21 8.8-3.23 9.54-8.73 3.22-8.13 11.8-12 17.7-5.66 8.5-12.6 16.2-19 24.2-2.34 3-4.64 5.93-8.51 10.9 9.51 0.58 15.9 0.5 22.1 1.43 35.4 5.26 59.8 33 60.9 69.4 0.5 16.4 0.08 32.8 0.08 50h39.2v19.6zm199-230c3.4-26.9-1.12-49.7-25.4-63.2-17.5-9.76-35.9-8.81-52.6 3-21.1 14.9-23.6 36.5-20.5 59.9 12.9-1.24 15.7-4.76 19.4-18.8 1.05-4 5.4-8.72 9.12-9.69 2.61-0.68 7.06 4.12 10.1 7.07 4.44 4.3 7.51 10.8 12.7 13.4 14.5 7.39 30.4 9.14 47.1 8.24zm-88.2 112c-24.5-0.8-44.7 12.9-48.6 35.8-3.48 20.3-2.45 41.4-3.41 62.3h79.8c2.95-9.42 0.71-15.9-7.25-21.5-12.2-8.65-23.4-18.6-35.2-27.9-6.82-5.31-8-10.9-3.23-18.4 6.08-9.5 11.6-19.4 17.9-30.3zm77.9 0.34c6.28 10.6 11.6 20.3 17.6 29.5 5.09 7.86 3.83 13.7-3.47 19.3-11.9 9.13-23.1 19.2-35.3 27.9-8.11 5.81-9.26 12.4-6.5 20.9h78.6c0-18.2 0.84-35.7-0.2-53.1-1.57-26.5-24.4-46.8-50.7-44.5zm-57.9-105c-4.06 2.58-10.8 6.48-17 11a10.6 10.6 0 0 0 -3.68 6.82c-2.52 24.1 14.5 43.8 38.2 44.6s41.9-17.5 40.8-42c-0.13-2.81-3.88-7.11-6.72-7.88-16.6-4.6-33.4-8.32-51.6-12.6zm7.66 83.2l9.93 47.9 3.21-0.33 8.89-47.6zm48.4 57.3l-13-19.6-7.8 36.1zm-74.1 0.09 20.7 16.2-8.14-36.7z" fill="#a3d252"/>
</svg>
