<svg width="307" height="79.1" viewBox="0 0 307 79.1" preserveAspectRatio="none" xmlns="http://www.w3.org/2000/svg">
 <g fill="#cc3805">
  <path d="m43.5 24.6h-18.3v-5.62q0-3.94-0.703-5.02t-2.34-1.08q-1.78 0-2.72 1.45-0.891 1.45-0.891 4.41 0 3.8 1.03 5.72 0.984 1.92 5.58 4.64 13.2 7.83 16.6 12.8 3.42 5.02 3.42 16.2 0 8.11-1.92 12-1.88 3.84-7.31 6.47-5.44 2.58-12.7 2.58-7.92 0-13.5-3-5.58-3-7.31-7.64-1.73-4.64-1.73-13.2v-4.97h18.3v9.23q0 4.27 0.75 5.48 0.797 1.22 2.77 1.22t2.91-1.55q0.984-1.55 0.984-4.59 0-6.7-1.83-8.77-1.88-2.06-9.23-6.89-7.36-4.88-9.75-7.08t-3.98-6.09q-1.55-3.89-1.55-9.94 0-8.72 2.2-12.8 2.25-4.03 7.22-6.28 4.97-2.3 12-2.3 7.69 0 13.1 2.48 5.44 2.48 7.17 6.28 1.78 3.75 1.78 12.8z"/>
  <path d="m51.3 1.59h32.9v15.2h-13.2v14.4h12.3v14.4h-12.3v16.7h14.5v15.2h-34.2z"/>
  <path d="m136 46q0 11.4-0.562 16.2-0.516 4.73-3.38 8.67-2.81 3.94-7.64 6.05-4.83 2.11-11.2 2.11-6.09 0-11-1.97-4.83-2.02-7.78-6-2.95-3.98-3.52-8.67t-0.562-16.4v-13q0-11.4 0.516-16.2 0.562-4.78 3.37-8.72 2.86-3.94 7.69-6.05 4.83-2.11 11.3-2.11 6.09 0 10.9 2.02 4.88 1.97 7.83 5.95 2.95 3.98 3.52 8.67 0.562 4.69 0.562 16.4zm-19.7-24.9q0-5.3-0.609-6.75-0.562-1.5-2.39-1.5-1.55 0-2.39 1.22-0.797 1.17-0.797 7.03v35.4q0 6.61 0.516 8.16 0.562 1.55 2.53 1.55 2.02 0 2.58-1.78t0.562-8.48z"/>
 </g>
 <g fill="#fff" fill-opacity=".8">
  <path d="m176 13.9v12.9h-9.93v51.4h-16.7v-51.4h-9.89v-12.9z"/>
  <path d="m180 13.9h27.9v12.9h-11.2v12.2h10.4v12.2h-10.4v14.1h12.3v12.9h-29z"/>
  <path d="m243 13.9 9.57 64.3h-17.1l-0.834-11.6h-6l-0.993 11.6h-17.3l8.5-64.3zm-8.86 41.3q-1.27-10.9-2.54-27-2.54 18.4-3.18 27z"/>
  <path d="m307 13.9v64.3h-14.6v-43.4l-5.84 43.4h-10.4l-6.16-42.4v42.4h-14.6v-64.3h21.6q0.953 5.8 2.03 13.7l2.3 16.4 3.81-30z"/>
 </g>
</svg>
