<svg width="500" height="500" viewBox="0 0 500 500" preserveAspectRatio="none" xmlns="http://www.w3.org/2000/svg">
 <path d="m238 174a59.3 59.3 0 0 0 0 119h117c0.206 0 0.401-0.0175 0.6-0.0293h31a46.5 46.5 0 0 1 0 93h-80.3a40.4 40.4 0 0 0 -39.4 -31.7h-15.3l-7.82-8.44a104 104 0 0 0 -75.8 -33h-51.1a16.3 16.3 0 0 0 -16.3 16.3v25.3h-10.5a40.3 40.3 0 0 0 -11.3 79 36.8 36.8 0 0 0 72 1.61h56.8a36.8 36.8 0 0 0 72.1 -2.15 40.3 40.3 0 0 0 26.5 -29.6h80.3a63.7 63.7 0 0 0 0 -127l0.0117 0.0195h-31.6c-0.206 0-0.401 0.0175-0.6 0.0293h-116a42.1 42.1 0 1 1 0 -84.2h69.6c-8.06-4.55-13.2-14.3-22.2-17.2h-47.5zm-121 156h50.2a86.4 86.4 0 0 1 60 24.4h-110v-24.4zm-27.6 41.6h19.1 139 0.209 18.8a23.2 23.2 0 0 1 11.6 43.2l0.0293-0.0195a36.8 36.8 0 0 0 -70.8 3.1h-56.8a36.8 36.8 0 0 0 -71 -2.4 23.2 23.2 0 0 1 10.3 -43.9zm24.1 35.2a19.7 19.7 0 0 1 20.5 19.7 19.7 19.7 0 0 1 -19.7 19.7 19.7 19.7 0 0 1 -0.838 -39.4zm128 0a19.7 19.7 0 0 1 20.5 19.7 19.7 19.7 0 0 1 -19.7 19.7 19.7 19.7 0 0 1 -0.838 -39.4zm-128 11.1a8.59 8.59 0 1 0 8.57 9 8.69 8.69 0 0 0 -8.57 -9zm128 0a8.59 8.59 0 1 0 8.57 9 8.69 8.69 0 0 0 -8.57 -9z"/>
 <path d="m308 25.2a63.7 63.7 0 0 0 -6.61 0.514 67.9 67.9 0 0 0 -45.8 27.9 72.9 72.9 0 0 0 -12.2 52.4c2.56 17.1 11 33 22 46.4a181 181 0 0 0 20.7 21.2h-0.43c9 2.91 14.1 12.6 22.2 17.2h1.15a8.57 8.57 0 0 0 6.93 -3.56l0.141-0.109c12.2-10 24.4-20.1 34.8-31.9s18.9-25.7 22.5-41c3.71-15.8 1.63-33-4.65-47.8-5.17-12.3-13.2-23.6-24.4-30.9a63.7 63.7 0 0 0 -36.3 -10.2zm1.82 17.1a47.1 47.1 0 0 1 28.9 10.5l0.15 0.131c16.5 13.6 23.7 40.9 16.5 62.2-7.66 22.5-27.7 40.1-46.3 55.5-19.8-16.5-40.3-35.9-47.2-58.5h0.0293c-6.22-20.5 1.26-46 17.4-59.3a47.1 47.1 0 0 1 30.5 -10.6zm-1.72 16.6a32.7 32.7 0 0 0 0.965 65.4 32.7 32.7 0 0 0 32.7 -32.7 32.7 32.7 0 0 0 -33.7 -32.7zm1.42 17.2a15.5 15.5 0 0 1 -0.463 31 15.5 15.5 0 0 1 -15.5 -15.5h-0.00976a15.5 15.5 0 0 1 16 -15.5z" fill="#a3d252"/>
</svg>
